<?xml version="1.0" encoding="utf-8"?>
<svg viewBox="0 0 500 500" xmlns="http://www.w3.org/2000/svg">
  <g id="svgg" transform="matrix(1, 0, 0, 1, 43.766891, -4.624915)">
    <path id="path0" d="M249.590 101.788 C 243.926 104.144,246.926 110.938,253.630 110.938 C 264.683 110.938,277.512 116.335,286.073 124.587 C 301.014 138.990,304.778 159.851,296.273 181.113 C 293.934 186.961,294.081 189.375,296.862 190.814 C 301.026 192.967,303.305 190.561,306.665 180.469 C 315.254 154.671,307.719 128.147,287.519 113.069 C 277.045 105.250,256.183 99.045,249.590 101.788 " stroke="none" fill-rule="evenodd" style="fill: rgb(255, 253, 253);"/>
    <path id="path1" d="M122.266 65.862 C 61.659 71.296,31.976 130.444,61.810 186.328 C 74.422 209.952,91.958 229.366,139.258 272.069 C 174.144 303.565,185.319 315.166,199.414 334.517 L 200.195 335.590 203.496 330.986 C 214.183 316.080,228.613 301.386,263.865 269.512 C 310.688 227.176,327.666 207.950,339.826 183.491 C 358.704 145.518,351.311 104.832,321.375 81.957 C 290.396 58.285,245.497 60.962,204.580 88.921 C 199.552 92.356,200.646 92.304,196.345 89.313 C 172.805 72.944,144.216 63.894,122.266 65.862 M263.534 102.306 C 297.444 109.296,317.010 141.072,308.415 175.195 C 305.201 187.955,302.069 192.798,297.916 191.428 C 293.993 190.133,293.453 187.582,295.837 181.606 C 309.801 146.597,291.094 114.812,254.381 111.171 C 246.949 110.434,244.357 107.213,247.737 102.915 C 249.310 100.916,255.609 100.673,263.534 102.306 " stroke="none" fill-rule="evenodd" style="fill: rgb(238, 16, 16);"/>
    <path id="path2" d="M310.295 159.180 C 310.294 161.113,310.360 161.954,310.442 161.047 C 310.524 160.140,310.525 158.558,310.444 157.531 C 310.363 156.504,310.296 157.246,310.295 159.180 " stroke="none" fill-rule="evenodd" style="fill: rgb(238, 16, 16);"/>
    <path id="path3" d="M293.555 118.359 C 294.394 119.219,295.168 119.922,295.276 119.922 C 295.383 119.922,294.784 119.219,293.945 118.359 C 293.106 117.500,292.332 116.797,292.224 116.797 C 292.117 116.797,292.716 117.500,293.555 118.359 " stroke="none" fill-rule="evenodd" style="fill: rgb(238, 16, 16);"/>
    <path id="path4" d="M300.502 159.180 C 300.505 160.254,300.581 160.647,300.671 160.053 C 300.761 159.459,300.758 158.581,300.666 158.100 C 300.573 157.620,300.499 158.105,300.502 159.180 " stroke="none" fill-rule="evenodd" style="fill: rgb(238, 16, 16);"/>
  </g>
</svg>